<?xml version="1.0" encoding="UTF-8"?>
<svg id="_图层_2" data-name="图层 2" xmlns="http://www.w3.org/2000/svg" viewBox="0 0 25.23 15.9">
  <defs>
    <style>
      .cls-1 {
        fill: #231815;
      }
    </style>
  </defs>
  <g id="_图层_1-2" data-name="图层 1">
    <g>
      <polygon class="cls-1" points="13.58 13.01 14.73 13.01 14.73 15.84 15.27 15.84 15.27 13.01 16.39 13.01 16.39 12.52 13.58 12.52 13.58 13.01"/>
      <path class="cls-1" d="M2.25,14.25c-.09-.08-.18-.14-.29-.2-.11-.05-.21-.1-.32-.13-.19-.06-.34-.12-.46-.18-.12-.06-.21-.12-.26-.19-.06-.07-.08-.14-.08-.23,0-.09.04-.18.12-.25.08-.07.2-.11.37-.11.12,0,.22.02.31.06.09.04.17.1.24.17.07.07.12.15.17.23h.03s.45-.27.45-.27c-.06-.11-.13-.21-.24-.32-.11-.11-.24-.2-.39-.27-.16-.07-.34-.11-.55-.11s-.4.04-.57.11c-.17.08-.3.18-.4.31-.1.13-.15.29-.15.46,0,.15.03.28.1.39.06.11.14.2.24.27.1.07.2.13.31.18.11.05.21.09.29.12.15.05.28.1.39.15.12.05.2.11.27.19.06.07.1.17.1.29,0,.13-.05.24-.15.32-.1.08-.23.12-.4.12-.13,0-.25-.03-.36-.08-.11-.05-.21-.13-.3-.22-.08-.09-.16-.19-.24-.31l-.46.27c.08.15.18.29.32.42.13.13.29.23.47.31.18.08.37.12.58.12.15,0,.3-.02.44-.07.14-.05.27-.11.38-.19.11-.08.2-.19.27-.31.07-.12.1-.26.1-.41,0-.14-.03-.27-.08-.38-.05-.11-.12-.2-.21-.28"/>
      <path class="cls-1" d="M12.43,14.66c.21-.05.38-.13.52-.24.24-.2.37-.47.37-.81s-.12-.62-.37-.81c-.23-.19-.56-.29-.97-.29h-1.11v3.33h.54v-1.62l1.29,1.62h.69l-.96-1.18ZM11.42,14.21v-1.21h.57c.25,0,.45.06.59.17.13.11.2.25.2.44s-.06.33-.2.44c-.14.11-.33.16-.59.16h-.57Z"/>
      <polygon class="cls-1" points="24.69 12.52 24.69 13.89 23.2 13.89 23.2 12.52 22.66 12.52 22.66 15.84 23.2 15.84 23.2 14.38 24.69 14.38 24.69 15.84 25.23 15.84 25.23 12.52 24.69 12.52"/>
      <polygon class="cls-1" points="4.79 14.21 2.98 12.46 2.98 15.84 3.52 15.84 3.52 13.72 4.79 14.95 6.05 13.72 6.05 15.84 6.59 15.84 6.59 12.46 4.79 14.21"/>
      <polygon class="cls-1" points="10.3 12.45 6.83 15.84 7.52 15.84 9.77 13.66 9.77 15.84 10.3 15.84 10.3 12.45"/>
      <path class="cls-1" d="M21.83,15.19h-.01c-.1.07-.21.12-.33.16-.28.08-.6.07-.87-.04-.16-.06-.29-.15-.41-.26-.12-.11-.21-.24-.27-.39-.07-.15-.1-.3-.1-.47,0-.11.02-.22.04-.32s.07-.2.13-.29c.05-.09.12-.17.2-.25.08-.08.16-.14.26-.19.09-.05.2-.09.3-.12.23-.06.48-.06.7,0,.12.03.22.08.33.14h.02s.36-.34.36-.34l-.06-.04c-.14-.09-.3-.17-.47-.22-.32-.1-.69-.1-1.02-.02-.15.04-.3.1-.43.17-.13.07-.25.16-.37.27-.11.1-.21.22-.28.35-.08.13-.14.26-.18.41-.04.15-.07.3-.07.46s.02.31.07.46c.04.14.1.28.18.41.08.13.17.24.28.35.11.1.23.19.37.27.13.07.28.13.43.17.15.04.31.06.48.06.19,0,.37-.03.53-.08.17-.05.33-.12.47-.21l.09-.06h0s-.37-.36-.37-.36Z"/>
      <polygon class="cls-1" points="17.39 15.35 17.39 14.41 18.29 14.41 18.29 13.92 17.39 13.92 17.39 13.01 18.69 13.01 19.19 12.52 19.19 12.52 16.86 12.52 16.86 15.84 19.19 15.84 18.69 15.35 17.39 15.35"/>
      <path class="cls-1" d="M1.98,0C.51,0,0,.77,0,1.79v.87c0,3.04,2.39,2.08,2.39,4.75v.99c0,.27-.12.44-.41.44s-.41-.17-.41-.44v-1.45H0v1.48c0,1.02.51,1.79,1.98,1.79s1.98-.76,1.98-1.79v-1.05c0-3.43-2.39-2.47-2.39-4.77v-.81c0-.25.12-.42.41-.42s.41.17.41.42v1.32h1.58v-1.33c0-1.02-.53-1.79-1.98-1.79"/>
      <polygon class="cls-1" points="5.22 10.21 8.45 10.21 8.45 8.73 6.8 8.73 6.8 5.78 8.24 5.78 8.24 4.32 6.8 4.32 6.8 1.49 8.45 1.49 8.45 0 5.22 0 5.22 10.21"/>
      <polygon class="cls-1" points="12.71 7.12 11.76 0 9.7 0 9.7 10.21 11.18 10.21 11 2.6 12.1 10.21 13.32 10.21 14.42 2.6 14.24 10.21 15.71 10.21 15.71 0 13.66 0 12.71 7.12"/>
      <polygon class="cls-1" points="16.57 10.21 18.14 10.21 19.94 0 18.37 0 16.57 10.21"/>
      <path class="cls-1" d="M24.72,4.27V1.74c0-1.05-.31-1.74-1.71-1.74h-2.23v10.21h1.57v-4.26h.09l1.11,4.26h1.68l-1.31-4.32c.66-.23.8-.75.8-1.62M23.17,4.01c0,.22-.09.32-.3.32h-.51V1.49h.48c.22,0,.33.1.33.35v2.17Z"/>
    </g>
  </g>
</svg>