<?xml version="1.0" encoding="UTF-8"?>
<svg id="_图层_2" data-name="图层 2" xmlns="http://www.w3.org/2000/svg" viewBox="0 0 25.23 10.21">
  <defs>
    <style>
      .cls-1 {
        fill: #231815;
      }
    </style>
  </defs>
  <g id="_图层_1-2" data-name="图层 1">
    <g>
      <path class="cls-1" d="M1.98,0C.51,0,0,.77,0,1.79v.87c0,3.04,2.39,2.08,2.39,4.75v.99c0,.27-.12.44-.41.44s-.41-.17-.41-.44v-1.45H0v1.48c0,1.02.51,1.79,1.98,1.79s1.98-.76,1.98-1.79v-1.05c0-3.43-2.39-2.47-2.39-4.77v-.81c0-.25.12-.42.41-.42s.41.17.41.42v1.32h1.58v-1.33c0-1.02-.53-1.79-1.98-1.79"/>
      <polygon class="cls-1" points="5.22 10.21 8.45 10.21 8.45 8.73 6.8 8.73 6.8 5.78 8.24 5.78 8.24 4.32 6.8 4.32 6.8 1.49 8.45 1.49 8.45 0 5.22 0 5.22 10.21"/>
      <polygon class="cls-1" points="12.71 7.12 11.76 0 9.7 0 9.7 10.21 11.18 10.21 11 2.6 12.1 10.21 13.32 10.21 14.42 2.6 14.24 10.21 15.71 10.21 15.71 0 13.66 0 12.71 7.12"/>
      <polygon class="cls-1" points="16.57 10.21 18.14 10.21 19.94 0 18.37 0 16.57 10.21"/>
      <path class="cls-1" d="M24.72,4.27V1.74c0-1.05-.31-1.74-1.71-1.74h-2.23v10.21h1.57v-4.26h.09l1.11,4.26h1.68l-1.31-4.32c.66-.23.8-.75.8-1.62M23.17,4.01c0,.22-.09.32-.3.32h-.51V1.49h.48c.22,0,.33.1.33.35v2.17Z"/>
    </g>
  </g>
</svg>