<?xml version="1.0" encoding="UTF-8"?>
<svg id="_图层_1" data-name="图层_1" xmlns="http://www.w3.org/2000/svg" version="1.1" xmlns:xlink="http://www.w3.org/1999/xlink" viewBox="0 0 63.78 12.66">
  <!-- Generator: Adobe Illustrator 30.3.0, SVG Export Plug-In . SVG Version: 2.1.3 Build 182)  -->
  <defs>
    <style>
      .st0, .st1 {
        fill: none;
      }

      .st2 {
        clip-path: url(#clippath-1);
      }

      .st3 {
        fill: #231815;
      }

      .st1 {
        stroke: #231815;
        stroke-miterlimit: 22.93;
        stroke-width: .5px;
      }

      .st4 {
        clip-path: url(#clippath);
      }
    </style>
    <clipPath id="clippath">
      <rect class="st0" y=".25" width="63.78" height="12.19"/>
    </clipPath>
    <clipPath id="clippath-1">
      <rect class="st0" y=".25" width="63.78" height="12.19"/>
    </clipPath>
  </defs>
  <g class="st4">
    <g class="st2">
      <rect class="st1" x=".71" y=".76" width="62.36" height="11.17"/>
      <line class="st1" x1="35.55" y1="1" x2="35.47" y2="11.93"/>
      <path class="st3" d="M8.69,9.84h-1.28c-.2,0-.35-.01-.47-.04-.14-.03-.25-.08-.32-.15-.08-.08-.12-.18-.12-.31,0-.09.02-.19.07-.3l.08-.18.06.04-.08.19-.02.12c0,.13.07.22.2.29.14.06.35.09.64.09h1.03c-.11-.03-.19-.07-.24-.11l-.09-.17c0-.09.03-.19.09-.29.07-.11.14-.17.22-.17.09,0,.16.06.2.17.04.1.05.23.05.41v.42ZM8.41,8.35l-.11.22-.23-.13.12-.22.22.13ZM8.55,9.39l-.03-.2-.1-.08-.07.03-.02.08.06.11.16.06"/>
      <path class="st3" d="M9.35,9.84h-.19l-.15-.08s-.06-.11-.08-.21c-.02-.09-.03-.2-.04-.34,0-.11-.01-.22-.02-.34,0-.12-.01-.21-.02-.26l-.04-.15-.09-.12.17-.28c.04.12.06.26.08.42,0,.1.02.34.03.72.02.17.04.29.07.33l.09.06h.19v.26Z"/>
      <path class="st3" d="M10.87,9.84h-1.61v-.26h1.14c-.1-.08-.17-.14-.24-.18l-.22-.11-.23-.04h-.14s.11-.16.11-.16c.06-.07.14-.1.24-.1s.21.05.34.15c.06.05.17.14.31.28.11.1.19.16.23.17h.08v.26ZM10.16,10.16l-.1.21-.23-.12.11-.21.22.12Z"/>
      <polygon class="st3" points="11.46 9.84 10.77 9.84 10.77 9.58 11.32 9.58 11.15 8.34 11.08 8.3 11.1 8.11 11.15 7.94 11.17 7.96 11.26 8.08 11.4 8.15 11.39 8.3 11.36 8.43 11.3 8.4 11.46 9.55 11.46 9.84"/>
      <path class="st3" d="M11.93,9.46l-.04.23-.09.18-.02-.02v-.1s.01-.07.01-.07c0-.1,0-.25-.02-.43-.02-.18-.03-.37-.05-.57-.01-.12-.03-.24-.04-.37l.07-.14.07-.14c.02.11.03.26.05.46.02.19.04.37.06.52.01.19.02.34.02.44"/>
      <path class="st3" d="M15.11,9.84h-1.28c-.2,0-.35-.01-.47-.04-.14-.03-.25-.08-.33-.15-.08-.08-.12-.18-.12-.31,0-.09.02-.19.07-.3l.08-.18.06.04-.08.19-.02.12c0,.13.07.22.2.29.14.06.35.09.64.09h1.03c-.11-.03-.19-.07-.24-.11l-.09-.17c0-.09.03-.19.09-.29.06-.11.14-.17.22-.17.09,0,.16.06.2.17.04.1.05.23.05.41v.42ZM14.83,8.35l-.11.22-.23-.13.12-.22.23.13ZM14.96,9.39l-.03-.2-.1-.08-.07.03-.02.08.06.11.16.06"/>
      <path class="st3" d="M15.81,9.84h-.8v-.26h.69c0-.11-.01-.2-.04-.26l-.13-.18.11-.24.13.21c.02.08.04.2.04.38v.36ZM15.48,10.26l-.11.21-.23-.12.11-.21.23.12ZM15.8,10.13l-.11.21-.23-.13.11-.21.23.12Z"/>
      <path class="st3" d="M17.47,9.84h-1.76v-.26h.21l.18-.03.21-.11.04-.14v-.14c.01-.1,0-.22-.01-.35-.01-.09-.04-.2-.06-.33-.01-.06-.03-.14-.06-.24l-.09-.04.03-.17.05-.16.1.11.17.04c-.01.1-.02.17-.02.19l-.02.1h-.05s-.02-.02-.02-.02c.03.12.06.23.08.35.02.12.03.22.03.3l-.02.23-.02.14c.16-.1.27-.16.31-.18.14-.07.26-.1.36-.1.12,0,.22.04.28.11.06.07.08.17.08.3v.37ZM17.25,9.47l-.07-.11s-.12-.04-.21-.04l-.23.05-.23.1-.18.11h.61c.22,0,.33-.04.33-.11M17.09,8.47l-.11.21-.23-.12.1-.21.23.12Z"/>
      <path class="st3" d="M18.17,9.84h-.8v-.25h.7c0-.12-.01-.2-.04-.27l-.13-.18.11-.24.13.21c.03.07.04.2.04.38v.36ZM18.06,8.48l-.1.21-.23-.12.1-.21.23.12Z"/>
      <path class="st3" d="M18.87,9.84h-.8v-.26h.7c0-.11-.01-.2-.04-.26l-.13-.18.11-.24.13.21c.02.08.04.2.04.38v.35ZM18.54,8.52l-.11.21-.23-.12.11-.21.23.12ZM18.86,8.39l-.11.21-.23-.13.11-.21.23.12Z"/>
      <polygon class="st3" points="19.46 9.84 18.77 9.84 18.77 9.58 19.32 9.58 19.15 8.34 19.08 8.3 19.1 8.11 19.15 7.94 19.17 7.96 19.26 8.08 19.4 8.15 19.39 8.3 19.36 8.43 19.3 8.4 19.46 9.55 19.46 9.84"/>
      <path class="st3" d="M19.93,9.46l-.04.23-.09.18-.02-.02v-.1s.01-.07.01-.07c0-.1,0-.25-.03-.43-.01-.18-.03-.37-.05-.57-.01-.12-.03-.24-.05-.37l.07-.14.07-.14c.01.11.03.26.06.46.02.19.04.37.05.52.02.19.02.34.02.44"/>
      <path class="st3" d="M21.82,9.84h-.17c-.15,0-.29.01-.41.05-.14.04-.22.09-.22.16l.03.21.06.22.03.2v.1s-.03.12-.03.12l-.07-.24c-.04-.15-.08-.27-.1-.35-.03-.12-.05-.2-.05-.23,0-.12.02-.22.08-.29.05-.07.12-.11.23-.15.08-.03.21-.05.37-.07l-.11-.11-.14-.06-.09.03-.08.08-.06-.04.1-.18.21-.11.17.07.14.15.11.16v.26Z"/>
      <path class="st3" d="M22.78,9.84h-.63l-.14-.05-.06-.11v-.1s.03-.1.03-.1h.03l.05.09.09.02h.54c0-.17-.02-.31-.07-.42-.06-.13-.15-.22-.29-.26l.02-.29c.16.08.28.22.34.4.05.14.08.34.08.57v.26Z"/>
      <path class="st3" d="M24.3,9.84h-1.61v-.26h1.14c-.1-.08-.18-.13-.24-.18l-.22-.12-.23-.04h-.14s.11-.17.11-.17c.06-.06.14-.09.24-.09s.21.05.34.14c.06.05.17.15.32.28.11.11.19.17.23.17h.08v.26ZM23.63,8.47l-.11.21-.23-.12.11-.21.23.12Z"/>
      <path class="st3" d="M25,9.84h-.8v-.26h.69c0-.11-.01-.2-.04-.26l-.13-.18.11-.24.13.21c.02.08.04.2.04.38v.35ZM24.67,8.52l-.11.21-.23-.12.11-.21.23.12ZM24.99,8.39l-.11.21-.23-.13.11-.21.23.12Z"/>
      <path class="st3" d="M26.52,9.84h-.11l-.16-.03-.12-.07-.12.07-.19.03h-.09l-.15-.03-.12-.07-.12.07-.18.02h-.27v-.26h.27l.16-.02.08-.14v-.09s-.02-.1-.02-.1l.06-.09.06.2.1.16.15.06h.09l.15-.03.06-.12v-.09s-.02-.09-.02-.09l.06-.09.03.14c.02.11.06.18.09.23l.13.05.06-.02.02-.06-.06-.17-.07-.09.09-.16.08.16c.02.06.03.15.03.26v.35Z"/>
      <path class="st3" d="M27.22,9.84h-.8v-.26h.69c0-.11-.01-.2-.04-.26l-.13-.18.11-.24.13.21c.02.08.04.2.04.38v.36ZM26.89,10.26l-.11.21-.23-.12.11-.21.23.12ZM27.21,10.13l-.11.21-.23-.13.11-.21.23.12Z"/>
      <path class="st3" d="M29.47,8.29l-.07.27-.08-.04v.13c0,.13-.01.26-.05.38-.04.13-.09.27-.16.4l.07.16.03.19v.09s-.01.09-.01.09c-.1.03-.2.04-.32.06-.11.01-.22.02-.33.02v-.04l.03-.21c.16-.09.29-.21.4-.35-.07-.13-.11-.22-.14-.28-.03-.06-.09-.15-.17-.27l-.08-.1-.07-.05-.06.02h-.04s-.1-.05-.1-.05l-.12-.14-.07-.11-.02-.11v-.14s.07-.08.07-.08l.17.12c.06.07.13.16.22.27.07.1.14.2.21.32l.14.24c.04.07.08.15.13.25.06-.13.1-.27.13-.4.02-.12.03-.26.03-.45l-.08-.05.02-.17.05-.14h.03s.07.11.07.11l.09.05.08.04M29.1,9.72v-.07s-.06-.11-.06-.11l-.12.13-.17.13c.11,0,.19,0,.24-.01l.12-.07"/>
      <path class="st3" d="M48.7,9.36c0,.22-.06.38-.18.48-.13.11-.34.17-.64.17-.19,0-.33-.04-.43-.1-.11-.07-.16-.19-.16-.35l.03-.26.08-.26c.02-.05.05-.13.1-.25l.06.03c-.07.14-.11.25-.13.33l-.03.22c0,.12.04.21.12.28.08.06.2.09.35.09.18,0,.33-.03.47-.1.17-.08.25-.2.25-.34,0-.1-.01-.19-.04-.28l-.1-.2.12-.3.1.24c.02.08.03.19.03.33v.25ZM48.18,8.24l-.1.21-.22-.12.1-.2.22.12Z"/>
      <path class="st3" d="M49.4,9.36h-.8v-.25h.7c0-.11-.01-.2-.04-.27l-.13-.18.11-.24.12.21c.02.07.04.2.04.37v.36ZM49.07,9.79l-.11.21-.23-.12.1-.21.23.12ZM49.39,9.66l-.11.21-.23-.12.11-.21.23.12Z"/>
      <path class="st3" d="M51.82,9.36h-1.68l-.15-.02-.12-.07-.12.07-.18.02h-.27v-.25h.27l.16-.02.08-.14v-.09s-.02-.1-.02-.1l.06-.09c.03.13.08.24.13.31l.21.11c.08,0,.17-.02.28-.05.11-.04.21-.09.29-.15.13-.1.21-.16.25-.17l.2-.11.23-.04c.13,0,.22.04.29.11.06.07.09.17.09.3v.37ZM51.59,9l-.09-.11-.2-.04c-.09,0-.21.03-.34.1-.11.06-.21.11-.32.17h.64c.1,0,.18,0,.23-.03l.07-.09"/>
      <polygon class="st3" points="52.42 9.36 51.73 9.36 51.73 9.11 52.27 9.11 52.11 7.87 52.04 7.83 52.05 7.64 52.1 7.47 52.12 7.48 52.21 7.61 52.36 7.67 52.35 7.83 52.32 7.95 52.25 7.93 52.42 9.08 52.42 9.36"/>
      <path class="st3" d="M52.89,8.99l-.04.23-.09.18-.03-.02v-.1s.01-.08.01-.08c0-.1,0-.24-.02-.43-.02-.18-.03-.37-.05-.57-.01-.12-.03-.24-.04-.37l.06-.14.07-.14c.01.11.04.27.06.46.02.19.04.37.05.53.02.19.02.34.02.44"/>
      <path class="st3" d="M55.49,9.36h-.24c-.15,0-.25,0-.32,0l-.11.05.13.05h.09s.15.02.15.02l.09.02.04.08c0,.18-.06.32-.17.4-.12.09-.33.13-.62.13-.2,0-.36-.04-.48-.11-.12-.07-.19-.18-.19-.32,0-.11.03-.23.09-.36.02-.04.08-.14.17-.29l.06.03-.11.19c-.05.11-.08.2-.08.27,0,.12.06.21.18.27.11.06.27.09.47.09.13,0,.25,0,.35-.03.12-.02.19-.06.19-.11l-.02-.04h-.07s-.12-.02-.12-.02h-.11s-.13-.03-.13-.03l-.04-.07c0-.12.03-.22.1-.3.06-.06.13-.11.22-.14l.23-.03h.24v.25ZM54.62,10.3l-.13.12-.16-.11.13-.13.16.11ZM54.91,10.3l-.13.12-.16-.11.12-.13.16.11Z"/>
      <path class="st3" d="M56.26,9.36h-.87v-.25h.74l-.03-.25-.11.04-.11.02-.17-.05-.07-.18c0-.14.02-.26.07-.36.05-.12.12-.17.2-.17.11,0,.2.09.26.28.05.15.08.34.08.54v.38ZM56.07,7.74l-.11.21-.23-.13.1-.21.23.12ZM56.03,8.6l-.06-.11-.11-.08-.06.04-.03.08.12.12.07-.02.07-.03"/>
      <path class="st3" d="M58.44,10.19l-.28.23c-.17,0-.31,0-.41-.02-.18-.03-.32-.09-.42-.18-.13-.11-.2-.27-.2-.47,0-.13.02-.26.07-.37.04-.09.1-.18.18-.27.04-.05.11-.11.21-.21l-.04-.07-.05-.02-.07.05h-.02c.02-.1.04-.17.06-.21.05-.09.14-.14.26-.14l.21.06.1.18-.05.12-.08.07.15.14.18.04h.13v.25h-.13c-.14,0-.25-.02-.33-.07-.08-.04-.14-.12-.19-.22l-.18.14-.18.2-.08.23c0,.17.08.29.24.38.12.07.29.12.5.14.11,0,.26.02.45.02h0Z"/>
      <path class="st3" d="M59.04,9.36h-.8v-.25h.7c0-.12-.01-.21-.04-.26l-.13-.18.11-.24.13.21c.03.07.04.2.04.37v.36ZM58.93,8.01l-.11.21-.23-.12.1-.21.23.12Z"/>
      <path class="st3" d="M61.47,9.36h-1.68l-.15-.02-.12-.07-.12.07-.19.02h-.27v-.25h.27l.16-.02.08-.14v-.09s-.02-.1-.02-.1l.06-.09c.03.13.08.24.13.31l.21.11c.08,0,.17-.02.28-.05.11-.04.21-.09.3-.15.13-.1.21-.16.24-.17l.21-.11.23-.04c.13,0,.22.04.29.11.06.07.09.17.09.3v.37ZM61.24,9l-.09-.11-.2-.04c-.09,0-.21.03-.34.1-.11.06-.21.11-.32.17h.64c.1,0,.18,0,.22-.03l.07-.09"/>
    </g>
    <polygon class="st3" points="39.27 3.99 39.47 2.44 40.22 3.99 40.27 3.99 41.01 2.45 41.21 3.99 41.42 3.99 41.12 1.84 41.08 1.84 40.25 3.61 39.4 1.84 39.37 1.84 39.07 3.99 39.27 3.99"/>
    <path class="st3" d="M43.13,2.74c.12.12.18.28.18.46,0,.12-.03.23-.08.33-.05.1-.13.17-.22.23-.1.06-.2.08-.31.08s-.21-.03-.3-.09c-.09-.06-.17-.14-.22-.24s-.08-.21-.08-.32.03-.22.08-.32.13-.18.22-.24c.09-.06.2-.08.31-.08.17,0,.32.06.43.19ZM43.29,2.4v.29c-.08-.11-.17-.19-.27-.25-.1-.06-.22-.08-.34-.08-.22,0-.41.08-.56.24s-.23.36-.23.59.08.43.23.6c.15.16.34.25.56.25.12,0,.24-.03.34-.08s.2-.13.28-.24v.27h.2v-1.59h-.2Z"/>
    <path class="st3" d="M45.27,2.74c.12.12.18.28.18.46,0,.12-.03.23-.08.33-.05.1-.13.17-.22.23-.1.06-.2.08-.31.08s-.21-.03-.3-.09c-.09-.06-.17-.14-.22-.24s-.08-.21-.08-.32.03-.22.08-.32.13-.18.22-.24c.09-.06.2-.08.31-.08.17,0,.32.06.43.19ZM45.43,1.78v.91c-.08-.11-.17-.19-.27-.25-.1-.06-.22-.08-.34-.08-.22,0-.41.08-.56.24s-.23.36-.23.59.08.43.23.6c.15.16.34.25.56.25.12,0,.24-.03.34-.08s.2-.13.28-.24v.27h.2V1.78h-.2Z"/>
    <path class="st3" d="M48.9,3.99h.2v-1.59h-.2v1.59ZM48.88,1.79l-.05.12.05.12.11.05.12-.05.05-.12-.05-.12-.12-.05-.11.05ZM46.39,3.03c.04-.15.1-.26.18-.33.11-.1.24-.15.39-.15.09,0,.18.02.26.06l.2.16c.05.07.09.15.12.26h-1.15ZM47.37,3.69l-.19.11-.23.04c-.16,0-.3-.06-.41-.18s-.17-.27-.17-.46h1.39c0-.22-.06-.4-.17-.54-.16-.21-.37-.31-.63-.31s-.46.1-.61.3c-.12.16-.18.34-.18.54,0,.21.07.41.21.58.14.17.34.26.59.26.11,0,.21-.02.3-.05l.24-.16c.07-.07.14-.16.19-.27l-.17-.09c-.06.1-.12.18-.17.23Z"/>
    <path class="st3" d="M53.82,1.9c-.16-.08-.33-.12-.53-.12-.32,0-.59.11-.8.32s-.32.48-.32.8.09.56.26.77c.21.25.5.38.86.38.19,0,.36-.04.52-.11s.28-.18.39-.32l-.16-.13c-.2.24-.44.35-.73.35-.27,0-.48-.09-.66-.26s-.26-.4-.26-.66c0-.17.04-.33.12-.47s.19-.25.33-.33.3-.12.46-.12c.15,0,.29.03.42.09.13.06.24.16.33.28l.16-.13c-.1-.14-.23-.26-.39-.33ZM49.66,3.99h.2v-.58c0-.21,0-.35.03-.43.03-.12.09-.22.19-.3.09-.08.2-.12.32-.12.1,0,.19.03.25.08.07.05.11.13.13.24.01.06.02.18.02.37v.76h.2v-.82c0-.22-.02-.38-.06-.48-.04-.1-.11-.18-.2-.24-.09-.06-.19-.09-.31-.09s-.22.03-.31.08-.18.14-.26.25v-.29h-.2v1.59Z"/>
    <path class="st3" d="M54.75,3.99h.2v-.58c0-.21,0-.36.03-.43.03-.12.09-.22.19-.3.09-.08.2-.12.32-.12.1,0,.19.03.25.08s.11.13.13.24c.01.06.02.18.02.37v.76h.2v-.82c0-.22-.02-.38-.06-.48-.04-.1-.11-.18-.2-.24s-.19-.09-.31-.09-.22.03-.31.08-.18.14-.26.25v-.9h-.2v2.21Z"/>
    <path class="st3" d="M56.65,3.99h.2v-1.59h-.2v1.59ZM56.63,1.79l-.05.12.05.12.11.05.12-.05.05-.12-.05-.12-.12-.05-.11.05Z"/>
    <path class="st3" d="M57.42,3.99h.2v-.58c0-.21,0-.35.03-.43.03-.12.09-.22.19-.3s.2-.12.32-.12c.1,0,.19.03.25.08s.11.13.13.24c.01.06.02.18.02.37v.76h.2v-.82c0-.22-.02-.38-.06-.48-.04-.1-.11-.18-.2-.24s-.19-.09-.31-.09-.22.03-.31.08-.18.14-.26.25v-.29h-.2v1.59Z"/>
    <path class="st3" d="M60.53,2.74c.12.12.18.28.18.46,0,.12-.03.23-.08.33-.05.1-.13.17-.22.23-.1.06-.2.08-.31.08s-.21-.03-.3-.09c-.09-.06-.17-.14-.22-.24s-.08-.21-.08-.32.03-.22.08-.32.13-.18.22-.24c.09-.06.2-.08.31-.08.17,0,.32.06.43.19ZM60.69,2.4v.29c-.08-.11-.17-.19-.27-.25-.1-.06-.22-.08-.34-.08-.22,0-.41.08-.56.24s-.23.36-.23.59.08.43.23.6c.15.16.34.25.56.25.12,0,.24-.03.34-.08s.2-.13.28-.24v.27h.2v-1.59h-.2Z"/>
    <path class="st3" d="M7.13,2.02h.15c.3,0,.51.02.64.06.17.05.31.16.41.3.1.15.15.32.15.53s-.04.37-.13.5c-.09.14-.21.23-.37.28-.11.04-.31.06-.6.06h-.24v-1.74ZM7.59,3.96c.26,0,.46-.04.61-.12.14-.08.26-.2.35-.36.09-.16.14-.35.14-.57,0-.25-.06-.47-.17-.65-.11-.18-.27-.31-.47-.38-.14-.05-.37-.08-.68-.08h-.43v2.15h.66Z"/>
    <path class="st3" d="M11.91,3.96h.2v-.58c0-.21,0-.35.03-.43.03-.12.09-.22.19-.3s.2-.12.32-.12c.1,0,.19.03.25.08.07.05.11.13.13.24.01.06.02.18.02.37v.76h.2v-.82c0-.22-.02-.38-.06-.48-.04-.1-.11-.18-.2-.24-.09-.06-.19-.09-.31-.09s-.22.03-.31.08-.18.14-.26.25v-.29h-.2v1.59ZM10.36,2.71c.12.13.18.28.18.46,0,.12-.03.22-.08.32-.05.1-.13.18-.22.23-.09.05-.19.08-.3.08s-.21-.03-.3-.08-.16-.13-.22-.23c-.05-.1-.08-.21-.08-.32,0-.18.06-.33.18-.46s.26-.19.42-.19.31.06.42.19ZM9.35,2.59c-.14.16-.21.35-.21.57s.07.42.22.58c.15.17.34.25.58.25s.43-.08.58-.25c.15-.17.22-.36.22-.58s-.07-.41-.21-.58c-.16-.18-.35-.27-.59-.27s-.44.09-.59.27Z"/>
    <path class="st3" d="M14.99,2.71c.12.13.18.28.18.46,0,.12-.03.22-.08.32-.05.1-.13.18-.22.23-.09.05-.19.08-.3.08s-.21-.03-.3-.08-.16-.13-.22-.23c-.05-.1-.08-.21-.08-.32,0-.18.06-.33.18-.46.12-.13.26-.19.42-.19s.31.06.42.19ZM13.98,2.59c-.14.16-.21.35-.21.57s.07.42.22.58c.15.17.34.25.58.25s.43-.08.58-.25c.15-.17.22-.36.22-.58s-.07-.41-.21-.58c-.16-.18-.35-.27-.59-.27s-.44.09-.59.27Z"/>
    <path class="st3" d="M18.86,2.71c.12.12.18.28.18.46,0,.12-.03.23-.08.33-.05.1-.13.17-.22.23s-.2.08-.31.08-.21-.03-.3-.09-.17-.14-.22-.24c-.06-.1-.08-.21-.08-.32s.03-.22.08-.32c.06-.1.13-.18.22-.24s.2-.08.31-.08c.17,0,.32.06.43.19ZM19.03,1.75v.91c-.08-.11-.17-.19-.27-.25s-.22-.08-.34-.08c-.22,0-.41.08-.56.24-.16.16-.23.36-.23.59s.08.43.23.6c.15.16.34.25.56.25.12,0,.24-.03.34-.08s.2-.13.28-.24v.27h.2V1.75h-.2ZM16.07,2.37h-.27v.18h.27v1.42h.2v-1.42h.31v-.18h-.31v-.59h-.2v.59Z"/>
    <path class="st3" d="M19.75,3.96h.2v-.54c0-.28.01-.46.04-.55.03-.12.08-.21.14-.26l.19-.08.1.03.1-.17-.18-.05-.21.07c-.07.05-.13.11-.19.21v-.23h-.2v1.59Z"/>
    <path class="st3" d="M24.54,2.5c-.07-.05-.15-.09-.24-.13-.09-.03-.19-.05-.3-.05-.16,0-.31.04-.44.11-.13.07-.23.18-.31.31-.08.13-.11.28-.11.43,0,.23.08.42.24.58.16.16.36.24.61.24.16,0,.3-.03.42-.09s.22-.15.3-.27l-.16-.11c-.14.19-.33.28-.55.28-.12,0-.23-.03-.33-.08-.1-.06-.18-.14-.23-.24-.06-.1-.09-.21-.09-.33,0-.18.06-.33.19-.46.12-.12.28-.19.47-.19.23,0,.42.09.56.28l.16-.1-.17-.2ZM21.33,3.84l-.3.7h.21l.92-2.18h-.21l-.51,1.23-.53-1.23h-.21l.63,1.47Z"/>
    <rect class="st3" x="25.22" y="1.75" width=".2" height="2.21"/>
    <path class="st3" d="M26.14,3c.04-.15.1-.26.18-.33.11-.1.24-.15.39-.15.09,0,.18.02.26.06l.2.16c.05.07.09.15.12.26h-1.15ZM27.12,3.66l-.19.11-.23.04c-.16,0-.3-.06-.41-.18s-.17-.27-.17-.46h1.39c0-.22-.06-.4-.17-.54-.16-.21-.37-.31-.63-.31s-.46.1-.61.3c-.12.16-.18.34-.18.54,0,.21.07.41.21.58.14.17.34.26.59.26.11,0,.21-.02.3-.05l.24-.16c.07-.07.14-.16.19-.27l-.17-.09c-.06.1-.12.18-.17.23Z"/>
    <path class="st3" d="M29.21,2.71c.12.12.18.28.18.46,0,.12-.03.23-.08.33-.05.1-.13.17-.22.23s-.2.08-.31.08-.21-.03-.3-.09c-.09-.06-.17-.14-.22-.24-.06-.1-.08-.21-.08-.32s.03-.22.08-.32c.06-.1.13-.18.22-.24.09-.06.2-.08.31-.08.17,0,.32.06.43.19ZM29.38,2.37v.29c-.08-.11-.17-.19-.27-.25s-.22-.08-.34-.08c-.22,0-.41.08-.56.24-.16.16-.23.36-.23.59s.08.43.23.6c.15.16.34.25.56.25.12,0,.24-.03.34-.08s.2-.13.28-.24v.27h.2v-1.59h-.2Z"/>
    <path class="st3" d="M30.18,3.96h.2v-.58c0-.21,0-.35.03-.43.03-.12.09-.22.19-.3s.2-.12.32-.12c.1,0,.19.03.25.08.07.05.11.13.13.24.01.06.02.18.02.37v.76h.2v-.82c0-.22-.02-.38-.06-.48-.04-.1-.11-.18-.2-.24-.09-.06-.19-.09-.31-.09s-.22.03-.31.08-.18.14-.26.25v-.29h-.2v1.59Z"/>
    <path class="st3" d="M33.2,5.91c.1.1.15.23.15.39,0,.1-.02.19-.07.27l-.19.19c-.08.05-.17.07-.27.07s-.18-.02-.26-.07l-.19-.2c-.05-.09-.07-.17-.07-.27s.02-.18.07-.27l.19-.2c.08-.05.17-.07.26-.07.15,0,.27.05.37.15ZM33.34,5.62v.24c-.07-.09-.14-.16-.23-.21-.09-.05-.19-.07-.3-.07-.19,0-.35.07-.48.2-.13.14-.2.3-.2.49s.07.36.2.5c.13.14.29.2.48.2.11,0,.2-.02.29-.07l.24-.2v.23h.17v-1.33h-.17ZM31.63,6.95h.17v-1.33h-.17v.53h-.77v-.53h-.17v1.33h.17v-.64h.77v.64ZM29.19,6.15c.04-.12.09-.21.16-.27.09-.08.21-.13.34-.13l.23.05.17.13c.04.05.08.13.1.22h-.99ZM30.04,6.7l-.16.09-.2.04c-.14,0-.26-.05-.35-.15-.1-.1-.14-.23-.15-.38h1.2c0-.18-.05-.33-.15-.45-.14-.17-.32-.26-.54-.26s-.4.08-.53.25c-.1.13-.16.28-.16.45,0,.18.06.34.18.48.12.14.29.21.51.21.1,0,.19-.01.26-.04l.21-.13c.06-.06.12-.13.16-.22l-.14-.08-.15.19ZM28.67,7.16h.16v-.37h-.29v-1.17h-.17v1.17h-.73v-1.17h-.17v1.17h-.73v-1.17h-.17v1.33h2.11v.21ZM25.07,6.15c.04-.12.09-.21.16-.27.09-.08.21-.13.34-.13l.23.05.17.13c.04.05.08.13.1.22h-.99ZM25.91,6.7l-.16.09-.2.04c-.14,0-.26-.05-.35-.15-.1-.1-.14-.23-.15-.38h1.2c0-.18-.05-.33-.15-.45-.14-.17-.32-.26-.54-.26s-.4.08-.53.25c-.1.13-.16.28-.16.45,0,.18.06.34.18.48.12.14.29.21.51.21.1,0,.19-.01.26-.04l.21-.13c.06-.06.12-.13.16-.22l-.14-.08-.15.19ZM24.18,5.82l.19.2c.05.08.07.17.07.27s-.02.18-.07.27l-.19.2c-.08.05-.17.07-.26.07s-.18-.02-.27-.07l-.19-.19c-.05-.08-.07-.17-.07-.27,0-.15.05-.28.15-.39.1-.1.23-.15.37-.15.09,0,.18.02.26.07ZM23.24,7.43h.17v-.71l.24.2c.09.04.19.07.29.07.19,0,.35-.07.48-.2.13-.14.2-.3.2-.5s-.07-.35-.2-.49c-.13-.14-.3-.2-.48-.2-.11,0-.21.02-.29.07s-.17.12-.23.21v-.24h-.17v1.81ZM21.74,6.95h.17v-1.17h.77v1.17h.17v-1.33h-1.11v1.33ZM21.05,5.91c.1.1.15.23.15.39,0,.1-.02.19-.07.27l-.19.19c-.08.05-.17.07-.27.07s-.18-.02-.26-.07l-.19-.2c-.05-.09-.07-.17-.07-.27s.02-.18.07-.27l.19-.2c.08-.05.17-.07.26-.07.15,0,.27.05.37.15ZM21.19,5.62v.24c-.07-.09-.14-.16-.23-.21-.09-.05-.19-.07-.3-.07-.19,0-.35.07-.48.2-.13.14-.2.3-.2.49s.07.36.2.5c.13.14.29.2.48.2.11,0,.2-.02.29-.07l.24-.2v.23h.17v-1.33h-.17ZM19.2,6.33h.1l.18.07.07.18-.07.18-.2.07c-.13,0-.23-.05-.32-.14l-.11.12c.11.12.26.18.44.18.15,0,.26-.04.33-.13.07-.09.11-.18.11-.29,0-.17-.08-.28-.24-.35.12-.05.18-.14.18-.28,0-.1-.04-.19-.11-.25-.07-.07-.17-.1-.28-.1-.13,0-.26.05-.38.15l.1.12c.09-.07.18-.11.28-.11l.18.06.06.15-.07.16-.16.06h-.09v.15ZM17.59,5.91c.1.1.15.23.15.39,0,.1-.02.19-.07.27l-.19.19c-.08.05-.17.07-.27.07s-.18-.02-.26-.07l-.19-.2c-.05-.09-.07-.17-.07-.27s.02-.18.07-.27l.19-.2c.08-.05.17-.07.26-.07.15,0,.27.05.37.15ZM17.73,5.62v.24c-.07-.09-.14-.16-.23-.21-.09-.05-.19-.07-.3-.07-.19,0-.35.07-.48.2-.13.14-.2.3-.2.49s.07.36.2.5c.13.14.29.2.48.2.11,0,.2-.02.29-.07l.24-.2v.23h.17v-1.33h-.17ZM15.32,6.95h.17v-.57l.05-.05.61.61h.24l-.73-.72.67-.61h-.24l-.62.56v-.56h-.17v1.33ZM14.21,5.77h.35v1.18h.17v-1.18h.35v-.15h-.87v.15ZM13.89,5.73l-.21-.1-.25-.04c-.14,0-.27.03-.38.09-.11.06-.2.15-.27.26-.06.11-.1.23-.1.36,0,.19.07.35.21.49.14.13.31.2.52.2.14,0,.26-.03.37-.08.11-.05.19-.13.26-.22l-.14-.09c-.12.16-.28.23-.48.23-.11,0-.2-.02-.29-.07l-.2-.2c-.05-.09-.07-.18-.07-.27,0-.15.05-.28.16-.38.11-.1.24-.16.4-.16.2,0,.36.08.48.23l.14-.08-.15-.16ZM11.2,5.62v1.33h.02l.97-.97v.97h.17v-1.33h-.01l-.98.98v-.98h-.17ZM10.65,6.95h.17v-1.33h-.17v.58h-.25c-.1,0-.17-.02-.22-.06-.04-.04-.07-.13-.07-.29v-.24h-.17v.33c0,.12.03.22.1.29.07.07.17.1.3.1h.3v.6ZM8.81,6.21h-.11c-.1,0-.17,0-.2-.01l-.1-.07-.04-.13.03-.14.09-.07s.11-.02.22-.02h.11v.44ZM8.81,6.95h.17v-1.33h-.4c-.12,0-.21.03-.28.1-.07.06-.11.16-.11.27,0,.09.03.17.09.23.06.06.14.1.24.11l-.4.61h.18l.38-.59h.12v.59ZM7.56,5.91c.1.1.15.23.15.39,0,.1-.02.19-.07.27l-.19.19c-.08.05-.17.07-.27.07s-.18-.02-.26-.07l-.19-.2c-.05-.09-.07-.17-.07-.27s.02-.18.07-.27l.19-.2c.08-.05.17-.07.26-.07.15,0,.27.05.37.15ZM7.7,5.62v.24c-.07-.09-.14-.16-.23-.21-.09-.05-.19-.07-.3-.07-.19,0-.35.07-.48.2-.13.14-.2.3-.2.49s.07.36.2.5c.13.14.29.2.48.2.11,0,.2-.02.29-.07l.24-.2v.23h.17v-1.33h-.17ZM5.65,6.25l-.5.7h.2l.4-.56.4.56h.21l-.51-.7.45-.63h-.21l-.35.49-.35-.49h-.21l.46.63ZM4.41,6.85l-.26.59h.18l.79-1.81h-.18l-.44,1.02-.46-1.02h-.18l.55,1.23ZM3.34,5.21c-.14-.07-.29-.1-.45-.1-.28,0-.51.09-.69.27s-.28.4-.28.66.08.46.23.64c.18.21.43.31.74.31.17,0,.31-.03.45-.09.13-.06.25-.15.34-.26l-.14-.11c-.17.2-.38.3-.63.3-.23,0-.42-.07-.57-.22s-.23-.33-.23-.55c0-.14.03-.28.1-.39s.16-.21.28-.28c.12-.07.25-.1.4-.1.13,0,.25.03.36.08.11.05.2.13.28.23l.14-.11c-.09-.12-.2-.21-.33-.28Z"/>
    <path class="st3" d="M59.78,6.15c.04-.12.09-.21.16-.27.09-.08.21-.13.34-.13l.23.05.17.13c.04.05.08.13.1.22h-.99ZM60.63,6.7l-.16.09-.2.04c-.14,0-.26-.05-.35-.15-.1-.1-.14-.23-.15-.38h1.2c0-.18-.05-.33-.15-.45-.14-.17-.32-.26-.54-.26s-.4.08-.53.25c-.1.13-.16.28-.16.45,0,.18.06.34.18.48.12.14.29.21.51.21.1,0,.19-.01.26-.04l.21-.13c.06-.06.12-.13.16-.22l-.14-.08-.15.19ZM58.96,5.91c.1.1.15.23.15.39,0,.1-.02.19-.07.27l-.19.19c-.08.05-.17.07-.27.07s-.18-.02-.26-.07l-.19-.2c-.05-.09-.07-.17-.07-.27s.02-.18.07-.27l.19-.2c.08-.05.17-.07.26-.07.15,0,.27.05.37.15ZM59.1,5.62v.24c-.07-.09-.14-.16-.23-.21-.09-.05-.19-.07-.3-.07-.19,0-.35.07-.48.2-.13.14-.2.3-.2.49s.07.36.2.5c.13.14.29.2.48.2.11,0,.2-.02.29-.07l.24-.2v.23h.17v-1.33h-.17ZM56.84,5.77h.35v1.18h.17v-1.18h.35v-.15h-.87v.15ZM55.45,5.62v1.33h.02l.97-.97v.97h.17v-1.33h-.01l-.98.98v-.98h-.17ZM54,6.95h.18v-.84l.79.84h.24l-.93-.99.86-.81h-.24l-.72.67v-.67h-.18v1.8ZM52.53,6.34l.18.06.07.17-.04.14-.1.07-.19.02h-.18v-.47h.25ZM52.39,5.77c.1,0,.16,0,.19,0l.09.07.04.14-.04.13-.09.06s-.1.01-.2.01h-.11v-.41h.11ZM52.98,6.58c0-.17-.09-.29-.26-.35.12-.05.18-.14.18-.27l-.1-.23c-.06-.07-.17-.1-.31-.1h-.38v1.33h.39c.32,0,.48-.12.48-.37ZM50.77,5.91c.1.1.15.23.15.38,0,.1-.02.19-.07.27l-.19.19c-.08.05-.17.07-.26.07s-.18-.02-.26-.07l-.19-.19c-.05-.08-.07-.17-.07-.27,0-.15.05-.28.15-.38.1-.1.22-.16.37-.16s.26.05.37.16ZM49.9,5.81c-.12.14-.18.29-.18.48s.06.35.19.49c.13.14.3.21.5.21s.37-.07.5-.21c.13-.14.19-.3.19-.49s-.06-.34-.18-.48c-.13-.15-.3-.22-.51-.22s-.38.07-.51.22ZM49.23,6.95h.17v-1.33h-.17v.53h-.77v-.53h-.17v1.33h.17v-.64h.77v.64ZM47.59,5.91c.1.1.15.23.15.39,0,.1-.02.19-.07.27l-.19.19c-.08.05-.17.07-.27.07s-.18-.02-.26-.07l-.19-.2c-.05-.09-.07-.17-.07-.27s.02-.18.07-.27l.19-.2c.08-.05.17-.07.26-.07.15,0,.27.05.37.15ZM47.73,5.62v.24c-.07-.09-.14-.16-.23-.21-.09-.05-.19-.07-.3-.07-.19,0-.35.07-.48.2-.13.14-.2.3-.2.49s.07.36.2.5c.13.14.29.2.48.2.11,0,.2-.02.29-.07l.24-.2v.23h.17v-1.33h-.17ZM45.7,5.62h-.03l-.61,1.33h.18l.44-.97.44.97h.18l-.61-1.33ZM43.69,6.15c.04-.12.09-.21.16-.27.09-.08.21-.13.34-.13l.23.05.17.13c.04.05.08.13.1.22h-.99ZM44.54,6.7l-.16.09-.2.04c-.14,0-.26-.05-.35-.15-.1-.1-.14-.23-.15-.38h1.2c0-.18-.05-.33-.15-.45-.14-.17-.32-.26-.54-.26s-.4.08-.53.25c-.1.13-.16.28-.16.45,0,.18.06.34.18.48.12.14.29.21.51.21.1,0,.19-.01.26-.04l.21-.13c.06-.06.12-.13.16-.22l-.14-.08-.15.19ZM42.99,6.8h-.76l.39-.92.37.92ZM41.9,6.8v.32h.17v-.18h1.1v.17h.16v-.31h-.16l-.51-1.18h-.09l-.51,1.18h-.16ZM41.39,5.21c-.14-.07-.29-.1-.45-.1-.28,0-.51.09-.69.27s-.28.4-.28.66.08.46.23.64c.18.21.43.31.74.31.17,0,.31-.03.45-.09.13-.06.25-.15.34-.26l-.14-.11c-.17.2-.38.3-.63.3-.23,0-.42-.07-.57-.22s-.23-.33-.23-.55c0-.14.03-.28.1-.39s.16-.21.28-.28c.12-.07.25-.1.4-.1.13,0,.25.03.36.08.11.05.2.13.28.23l.14-.11c-.09-.12-.2-.21-.33-.28Z"/>
  </g>
</svg>