<?xml version="1.0" encoding="UTF-8"?>
<svg id="_图层_1" data-name="图层_1" xmlns="http://www.w3.org/2000/svg" version="1.1" viewBox="0 0 10.25 7.45">
  <!-- Generator: Adobe Illustrator 30.3.0, SVG Export Plug-In . SVG Version: 2.1.3 Build 182)  -->
  <defs>
    <style>
      .st0 {
        fill-rule: evenodd;
      }
    </style>
  </defs>
  <path class="st0" d="M3.07,2.46h0c0,.25,0,.48,0,.72,0,.15,0,.3.03.45.04.27.24.38.49.28.08-.04.16-.08.27-.13v.13c0,.62.02,1.23,0,1.85,0,.3.23.64.62.61.03,0,.06,0,.09,0,.07.2.36.3.57.29.11,0,.21,0,.32,0,.3.04.65-.16.78-.44.02-.04.02-.09.02-.13,0-.29,0-.58,0-.88.09-.02.17-.02.24-.04.24-.08.39-.25.42-.5.04-.32.07-.64.08-.96,0-.38,0-.76-.02-1.13,0-.06.02-.09.05-.11h0v-.41s-.02,0-.03,0c0-.34-.06-.65-.18-.95-.06-.14-.08-.29-.1-.45-.02-.17,0-.35,0-.53h-.38c0,.11,0,.21,0,.32,0,.31.03.6.16.89.06.13.09.29.1.43.02.26.01.51.02.77,0,.52.01,1.05,0,1.57,0,.17-.04.35-.07.52-.03.13-.13.18-.28.14v-1.7h-.38v2.88c0,.15-.08.24-.24.27v-3.18h-.37v.15c0,.96,0,1.92,0,2.88,0,.14-.04.17-.18.18-.13,0-.11-.09-.11-.16v-3.02h-.38v2.72c0,.16-.12.23-.26.16-.09-.04-.1-.12-.1-.21v-3.64h-.38v1.04s0,.1-.02.12c-.11.1-.23.18-.37.29,0-.08-.02-.12-.02-.15,0-.46,0-.93,0-1.39,0-.19.05-.36.15-.5.18-.24.37-.48.56-.71.02-.03.06-.06.06-.1,0-.23,0-.47,0-.71h-.38c0,.16,0,.31,0,.46,0,.06-.03.12-.06.17-.11.15-.24.29-.35.43-.2.27-.37.56-.38.92h0v.47Z"/>
  <path class="st0" d="M9.92.45c-.14.49-.28.97-.42,1.47-.18-.23-.36-.41-.59-.52-.41-.2-.81-.17-1.15.18-.2.21-.43.34-.69.41-.04.01-.09.02-.13.03v.39c.39-.07.75-.23,1.05-.55.2-.21.43-.25.68-.15.29.11.5.34.67.62.02.03.02.09,0,.12-.42,1.51-.85,3.01-1.27,4.52-.03.1-.08.09-.14.09h-3.82c-.66,0-1.33,0-1.99,0-.09,0-.13-.02-.15-.13-.41-1.63-.83-3.26-1.24-4.88,0-.02,0-.04-.02-.07.31-.19.62-.35.99-.29.15.02.27.1.38.21.08.09.17.18.25.27.23.22.48.36.78.31v-.4c-.12.04-.24.04-.35-.04-.13-.1-.26-.2-.36-.33-.34-.41-.75-.5-1.21-.36-.2.06-.38.15-.58.23-.09-.37-.19-.75-.29-1.13-.11.04-.22.07-.33.11.59,2.3,1.17,4.58,1.76,6.88h6.55c.65-2.29,1.29-4.58,1.94-6.88-.12-.04-.22-.08-.32-.12Z"/>
</svg>