<?xml version="1.0" encoding="UTF-8"?>
<svg id="_图层_1" data-name="图层_1" xmlns="http://www.w3.org/2000/svg" version="1.1" xmlns:xlink="http://www.w3.org/1999/xlink" viewBox="0 0 64.6 14.09">
  <!-- Generator: Adobe Illustrator 30.3.0, SVG Export Plug-In . SVG Version: 2.1.3 Build 182)  -->
  <defs>
    <style>
      .st0 {
        fill: none;
      }

      .st1 {
        clip-path: url(#clippath-1);
      }

      .st2 {
        fill: #231815;
      }

      .st3 {
        clip-path: url(#clippath);
      }
    </style>
    <clipPath id="clippath">
      <rect class="st0" x="-.17" y=".05" width="65.2" height="13.32"/>
    </clipPath>
    <clipPath id="clippath-1">
      <rect class="st0" x="-.17" y=".05" width="65.2" height="13.32"/>
    </clipPath>
  </defs>
  <g class="st3">
    <g class="st1">
      <path class="st2" d="M25.28,12.24c0,.21-.05.38-.15.5-.09.11-.22.19-.38.23-.14.04-.33.06-.55.06-.25,0-.45-.05-.58-.14-.15-.1-.23-.25-.23-.45,0-.11.02-.23.05-.35.03-.1.07-.22.12-.34.04-.09.09-.2.16-.32l.06.04-.12.23c-.04.09-.08.18-.1.25l-.04.26c0,.16.06.28.17.36.12.08.28.12.49.12.22,0,.42-.04.61-.11.21-.08.31-.18.31-.3,0-.12-.02-.34-.06-.64-.03-.23-.07-.49-.11-.78l-.06-.38-.09-.05c0-.17.04-.33.11-.47h.03l.03.11.06.05.13.06.09.05c0,.09,0,.16,0,.2l-.04.17-.11-.04s.02.16.06.39c.04.27.07.49.09.66.03.27.05.48.05.62"/>
      <path class="st2" d="M27.4,12.48h-.15l-.21-.03-.16-.1-.16.1c-.07.02-.16.03-.27.03h-.13l-.2-.04-.16-.08-.17.1c-.05.02-.14.03-.25.03h-.38v-.34h.38c.11,0,.18,0,.23-.03.07-.03.11-.09.11-.18v-.11s-.03-.13-.03-.13l.08-.12c.04.12.07.21.09.26.04.1.09.17.14.21l.22.09h.13c.1,0,.17-.01.22-.04l.08-.16v-.11s-.03-.12-.03-.12l.08-.12.04.18c.04.15.08.25.13.3l.18.07.08-.03.03-.08-.08-.23-.1-.13.13-.21.11.21c.03.09.04.2.04.35v.47Z"/>
      <path class="st2" d="M28.98,12.48h-.29l-.26-.06c-.11-.05-.18-.11-.23-.2-.09.08-.19.14-.3.18-.14.05-.29.08-.47.08h-.18v-.34h.18c.11,0,.21-.01.3-.04.11-.03.21-.07.31-.13l-.08-.11-.14-.07h-.06s-.06.07-.06.07h-.04v-.11c0-.14.04-.24.11-.3.07-.05.19-.07.36-.07.15,0,.27.02.36.06.12.05.18.13.18.24l-.07.17s-.1.1-.19.18l.12.08.15.03h.29v.34ZM28.32,10.67l-.15.28-.32-.16.15-.29.32.17Z"/>
      <polygon class="st2" points="29.81 12.48 28.84 12.48 28.84 12.14 29.61 12.14 29.38 10.49 29.28 10.44 29.3 10.19 29.37 9.96 29.4 9.98 29.53 10.15 29.73 10.23 29.71 10.43 29.67 10.6 29.58 10.57 29.81 12.1 29.81 12.48"/>
      <path class="st2" d="M30.47,11.99c0,.11-.02.2-.06.3-.02.05-.06.13-.13.25l-.04-.02v-.13s.02-.1.02-.1c0-.14-.01-.32-.03-.57-.02-.24-.05-.5-.08-.76-.02-.16-.04-.33-.06-.49l.09-.18.1-.19c.02.15.05.35.08.61.03.26.06.49.08.7.02.26.04.45.04.58"/>
      <path class="st2" d="M34.6,12.48h-1.86c-.25,0-.45-.04-.6-.13-.19-.11-.28-.28-.28-.52,0-.12.03-.24.08-.37.02-.05.07-.13.14-.26l.06.04-.08.18c-.04.09-.06.17-.06.25,0,.15.08.27.24.36.14.08.33.12.55.12h1.65v-.06c0-.14-.02-.26-.05-.36-.04-.09-.1-.17-.18-.24l.15-.32.1.13c.09.15.13.36.13.64v.53ZM33.24,10.89l-.15.28-.32-.16.14-.28.32.16ZM33.68,10.71l-.15.28-.32-.17.15-.28.32.17Z"/>
      <path class="st2" d="M35.52,12.48h-.27c-.09,0-.16-.04-.21-.11-.05-.07-.08-.16-.11-.28-.02-.12-.04-.27-.05-.46,0-.15-.02-.3-.03-.45,0-.15-.02-.27-.03-.35l-.05-.2-.12-.16.24-.38c.05.16.09.34.11.56.01.14.02.46.04.96.02.23.06.38.1.44l.12.08h.27v.34Z"/>
      <path class="st2" d="M37.1,12.49h-.21c-.09,0-.18-.02-.29-.06-.13-.05-.24-.11-.33-.18-.08.09-.15.15-.23.19-.08.04-.19.06-.34.06h-.3v-.34h.3c.12,0,.22-.03.32-.09l.19-.2c.08-.11.18-.21.29-.3.1-.07.2-.12.29-.14.09.14.16.26.21.37.07.15.11.27.11.36v.34ZM36.87,12.1l-.08-.23-.12-.19-.16.09-.1.14.2.14.24.07.02-.02Z"/>
      <path class="st2" d="M38.07,12.48h-1.12v-.34h.97c0-.15-.02-.27-.05-.35-.03-.05-.09-.14-.18-.24l.15-.32c.09.12.15.21.18.28.04.1.05.27.05.5v.48ZM37.61,13.05l-.15.28-.32-.16.14-.28.32.16ZM38.06,12.87l-.15.28-.32-.17.15-.28.32.17Z"/>
      <polygon class="st2" points="38.9 12.48 37.94 12.48 37.94 12.14 38.7 12.14 38.47 10.49 38.37 10.44 38.39 10.19 38.46 9.96 38.49 9.98 38.62 10.15 38.82 10.23 38.8 10.43 38.76 10.6 38.67 10.57 38.9 12.1 38.9 12.48"/>
      <path class="st2" d="M40.48,12.48h-.29l-.26-.06c-.11-.05-.18-.12-.23-.2-.09.08-.19.14-.3.18-.14.05-.29.08-.47.08h-.18v-.34h.18c.11,0,.21-.01.3-.03.11-.03.21-.07.31-.13l-.08-.1-.14-.08h-.06s-.06.07-.06.07h-.04v-.11c0-.14.04-.24.11-.3.07-.05.19-.07.36-.07.15,0,.27.02.36.06.12.05.18.13.18.23l-.07.17s-.1.11-.19.19l.12.08.15.03h.29v.34Z"/>
      <path class="st2" d="M41.45,12.49h-1.11v-.34h.97c0-.16-.02-.27-.05-.35-.03-.05-.09-.13-.18-.24l.15-.32c.09.12.15.21.18.28.04.1.05.27.05.5v.48ZM40.99,10.73l-.15.28-.32-.16.14-.28.32.16ZM41.44,10.55l-.15.28-.32-.17.15-.28.32.17Z"/>
      <polygon class="st2" points="11.19 3.89 11.25 3.89 12.15 1.49 13.03 3.89 13.08 3.89 13.93 .72 13.63 .72 13.01 3.01 12.17 .72 12.11 .72 11.26 3.01 10.66 .72 10.35 .72 11.19 3.89"/>
      <path class="st2" d="M16.21,2.05c.17.18.25.41.25.68,0,.18-.04.34-.11.48-.07.14-.18.26-.32.34-.14.08-.28.13-.44.13s-.3-.04-.43-.13c-.13-.08-.24-.2-.32-.35s-.12-.31-.12-.47.04-.32.12-.47c.08-.15.18-.27.32-.35.13-.08.28-.12.43-.12.24,0,.45.09.62.27ZM16.44,1.55v.43c-.11-.16-.24-.29-.38-.37-.15-.08-.31-.12-.49-.12-.31,0-.58.12-.8.36-.22.24-.33.53-.33.87s.11.64.33.88c.22.24.48.36.8.36.17,0,.34-.04.48-.12s.28-.19.4-.35v.4h.28V1.55h-.28Z"/>
      <path class="st2" d="M17.98,1.49c-.17,0-.32.06-.43.18-.11.12-.17.27-.17.44,0,.14.04.26.11.36.07.11.21.21.4.32.18.1.3.18.36.25l.08.23c0,.11-.04.2-.12.27s-.18.12-.29.12c-.16,0-.31-.09-.46-.26l-.18.22c.08.1.17.18.29.24.12.06.24.09.36.09.19,0,.35-.07.47-.2.13-.13.19-.3.19-.49,0-.14-.04-.26-.11-.37-.08-.11-.22-.22-.43-.34-.17-.09-.29-.18-.34-.25l-.08-.22.1-.23c.07-.06.14-.1.24-.1.14,0,.29.08.44.24l.18-.2c-.2-.21-.41-.32-.61-.32Z"/>
      <path class="st2" d="M19.26,3.89h.28v-.86c0-.31.01-.52.04-.64.04-.18.13-.33.27-.45.14-.12.29-.18.46-.18.15,0,.27.04.36.12.09.08.16.2.19.35.02.09.03.27.03.54v1.12h.28v-1.21c0-.32-.03-.56-.09-.71-.06-.15-.15-.27-.28-.36-.13-.09-.27-.13-.44-.13s-.31.04-.45.12c-.14.08-.26.2-.38.36V.64h-.28v3.25Z"/>
      <path class="st2" d="M21.88,3.89h.28V1.55h-.28v2.35ZM21.85.65l-.07.18.07.17.16.07.16-.07.07-.17-.07-.18-.16-.07-.16.07Z"/>
      <path class="st2" d="M22.94,3.89h.28v-.86c0-.31.01-.52.04-.64.04-.18.13-.33.27-.45.14-.12.29-.18.46-.18.15,0,.27.04.36.12.09.08.16.2.19.35.02.09.03.27.03.54v1.12h.28v-1.21c0-.32-.03-.55-.09-.71-.06-.15-.15-.27-.28-.36s-.27-.13-.44-.13-.31.04-.45.12c-.14.08-.26.2-.38.36v-.42h-.28v2.35Z"/>
      <path class="st2" d="M29.48,3.89h.28V1.55h-.28v2.35ZM29.46.65l-.07.18.07.17.16.07.16-.07.07-.17-.07-.18-.16-.07-.16.07ZM27.09,1.9c.13.08.24.19.31.33.07.14.11.3.11.47,0,.27-.08.49-.24.66-.16.17-.37.25-.63.25s-.47-.08-.63-.25c-.16-.17-.24-.38-.24-.64,0-.17.04-.33.12-.47.08-.15.19-.26.32-.34.14-.08.29-.12.45-.12s.3.04.43.12ZM27.49,1.95c-.13-.17-.27-.29-.41-.36-.14-.07-.3-.11-.46-.11-.2,0-.39.05-.56.16s-.32.26-.42.45c-.1.19-.15.39-.15.61s.05.42.15.6c.1.18.23.33.41.43.18.11.37.16.57.16.17,0,.34-.04.49-.12.15-.08.28-.19.39-.33v.12c0,.26-.03.45-.08.56-.06.12-.15.21-.28.29-.13.08-.3.12-.49.12s-.36-.04-.49-.11c-.13-.07-.24-.19-.32-.35h-.31c.08.18.17.33.26.42.09.1.22.17.37.23.15.06.32.09.51.09.26,0,.48-.06.66-.17s.31-.28.39-.5c.05-.15.08-.39.08-.72v-1.87h-.28v.41Z"/>
      <path class="st2" d="M30.42,3.89h.28v-.86c0-.31.01-.52.04-.64.04-.18.13-.33.27-.45.14-.12.29-.18.46-.18.15,0,.27.04.36.12.09.08.16.2.19.35.02.09.03.27.03.54v1.12h.28v-1.21c0-.32-.03-.55-.09-.71-.06-.15-.15-.27-.28-.36-.13-.09-.27-.13-.44-.13s-.31.04-.45.12c-.14.08-.26.2-.38.36v-.42h-.28v2.35Z"/>
      <path class="st2" d="M33.57,1.49c-.17,0-.32.06-.43.18-.11.12-.17.27-.17.44,0,.14.04.26.11.36.07.11.21.21.4.32.18.1.3.18.36.25l.08.23c0,.11-.04.2-.12.27-.08.08-.18.12-.29.12-.16,0-.31-.09-.46-.26l-.18.22c.08.1.17.18.29.24.12.06.24.09.36.09.19,0,.35-.07.47-.2.13-.13.19-.3.19-.49,0-.14-.04-.26-.11-.37-.08-.11-.22-.22-.43-.34-.17-.09-.29-.18-.34-.25l-.08-.22.1-.23c.07-.06.14-.1.24-.1.14,0,.29.08.44.24l.18-.2c-.2-.21-.41-.32-.61-.32Z"/>
      <polygon class="st2" points="35.1 1.55 34.72 1.55 34.72 1.81 35.1 1.81 35.1 3.89 35.38 3.89 35.38 1.81 35.83 1.81 35.83 1.55 35.38 1.55 35.38 .67 35.1 .67 35.1 1.55"/>
      <path class="st2" d="M36.33,3.89h.29v-.79c0-.41.02-.68.05-.81.05-.17.11-.3.2-.39.09-.08.18-.12.27-.12l.15.04.15-.25-.25-.08c-.1,0-.2.03-.3.1-.1.07-.19.17-.27.3v-.34h-.29v2.35Z"/>
      <path class="st2" d="M37.82,2.68c0,.33.04.58.11.75.07.17.18.3.32.39.14.09.32.14.54.14s.39-.05.53-.14c.14-.09.25-.22.32-.39.07-.16.11-.41.11-.73v-1.15h-.29v1.1c0,.29-.01.49-.04.58-.04.13-.12.24-.23.32-.11.08-.24.12-.4.12s-.29-.04-.41-.13c-.11-.08-.19-.2-.23-.34-.03-.1-.04-.28-.04-.55v-1.1h-.28v1.13Z"/>
      <path class="st2" d="M42.4,1.74c-.09-.08-.21-.14-.34-.19-.14-.05-.28-.07-.42-.07-.23,0-.44.05-.63.16-.19.11-.33.26-.44.46-.11.19-.16.41-.16.63,0,.34.11.63.34.86.23.24.52.35.86.35.23,0,.43-.05.6-.14.18-.09.32-.22.42-.39l-.22-.16c-.2.27-.47.41-.79.41-.18,0-.33-.04-.48-.13-.14-.08-.25-.2-.33-.35-.08-.15-.12-.31-.12-.48,0-.26.09-.49.26-.67s.4-.28.67-.28c.33,0,.6.14.79.41l.22-.15c-.07-.12-.15-.22-.24-.29Z"/>
      <polygon class="st2" points="43.57 1.55 43.18 1.55 43.18 1.81 43.57 1.81 43.57 3.89 43.85 3.89 43.85 1.81 44.3 1.81 44.3 1.55 43.85 1.55 43.85 .67 43.57 .67 43.57 1.55"/>
      <path class="st2" d="M44.86,3.89h.28V1.55h-.28v2.35ZM44.83.65l-.07.18.07.17.16.07.16-.07.07-.17-.07-.18-.16-.07-.16.07Z"/>
      <path class="st2" d="M47.56,2.06c.17.19.25.41.25.67,0,.17-.04.33-.12.47-.08.15-.18.26-.31.34s-.27.12-.43.12-.3-.04-.43-.12c-.13-.08-.23-.19-.31-.34-.08-.15-.12-.31-.12-.47,0-.26.08-.49.25-.67.17-.19.37-.28.6-.28s.43.09.6.28ZM46.11,1.88c-.2.24-.3.52-.3.85s.11.61.32.86c.21.25.49.37.83.37s.61-.12.82-.37c.21-.25.32-.53.32-.86s-.1-.61-.3-.85c-.22-.26-.5-.39-.84-.39s-.62.13-.84.39Z"/>
      <path class="st2" d="M48.76,3.89h.28v-.86c0-.31.01-.52.04-.64.04-.18.13-.33.27-.45.14-.12.29-.18.46-.18.15,0,.27.04.36.12.09.08.16.2.19.35.02.09.03.27.03.54v1.12h.28v-1.21c0-.32-.03-.55-.09-.71-.06-.15-.15-.27-.28-.36s-.27-.13-.44-.13-.31.04-.45.12c-.14.08-.26.2-.38.36v-.42h-.28v2.35Z"/>
      <path class="st2" d="M51.92,1.49c-.17,0-.32.06-.43.18-.11.12-.17.27-.17.44,0,.14.04.26.11.36.07.11.21.21.4.32.18.1.3.18.36.25l.08.23c0,.11-.04.2-.12.27s-.18.12-.29.12c-.16,0-.31-.09-.46-.26l-.18.22c.08.1.17.18.29.24.12.06.24.09.36.09.19,0,.35-.07.47-.2.13-.13.19-.3.19-.49,0-.14-.04-.26-.11-.37-.08-.11-.22-.22-.43-.34-.17-.09-.29-.18-.34-.25l-.08-.22.1-.23c.07-.06.14-.1.24-.1.14,0,.29.08.44.24l.18-.2c-.2-.21-.41-.32-.61-.32Z"/>
      <polygon class="st2" points="54.26 .64 53.03 4.33 53.34 4.33 54.57 .64 54.26 .64"/>
    </g>
    <path class="st2" d="M62.15,7.27l-.77-1.5h-.07l-.65,1.91h.26l.47-1.41.74,1.41h.05l.74-1.41.47,1.41h.26l-.65-1.91h-.07l-.77,1.5ZM58.65,6.54c.05-.18.12-.31.22-.4.13-.12.3-.18.48-.18.11,0,.22.02.33.07.1.05.19.11.25.19.06.08.11.18.14.31h-1.43ZM59.86,7.33c-.06.06-.14.1-.23.13-.09.03-.19.05-.28.05-.2,0-.37-.07-.51-.21s-.21-.32-.21-.55h1.72c0-.26-.07-.48-.21-.65-.19-.25-.46-.37-.78-.37s-.57.12-.76.36c-.15.19-.22.41-.22.65,0,.26.09.49.26.69s.42.31.73.31c.14,0,.27-.02.38-.06.11-.04.21-.11.3-.19.09-.08.17-.19.24-.32l-.21-.11c-.08.12-.14.22-.21.27ZM56.21,5.78v1.91h.03l1.39-1.4v1.4h.25v-1.91h-.02l-1.4,1.42v-1.42h-.25ZM54.91,5.78h-.04l-.88,1.91h.26l.63-1.39.64,1.39h.26l-.88-1.91ZM51.98,6.54c.05-.18.12-.31.22-.4.13-.12.3-.18.48-.18.11,0,.22.02.33.07.1.05.19.11.25.19.06.08.11.18.14.31h-1.43ZM53.19,7.33c-.06.06-.14.1-.23.13-.09.03-.19.05-.28.05-.2,0-.37-.07-.51-.21-.14-.14-.21-.32-.21-.55h1.72c0-.26-.07-.48-.21-.65-.19-.25-.46-.37-.78-.37s-.57.12-.76.36c-.15.19-.22.41-.22.65,0,.26.09.49.26.69.18.2.42.31.73.31.14,0,.27-.02.38-.06.11-.04.21-.11.3-.19.09-.08.17-.19.24-.32l-.21-.11c-.08.12-.14.22-.21.27ZM50.92,7.48h-1.1l.56-1.32.54,1.32ZM49.36,7.48v.46h.24v-.25h1.58v.24h.24v-.45h-.23l-.73-1.7h-.13l-.74,1.7h-.23ZM48.33,6.79h.15c.1,0,.18.03.25.1.07.06.11.15.11.26s-.04.2-.11.26c-.07.07-.17.1-.29.1-.18,0-.34-.07-.45-.2l-.16.18c.16.17.37.25.63.25.21,0,.37-.06.48-.18s.16-.26.16-.41c0-.24-.11-.41-.34-.5.18-.07.26-.21.26-.4,0-.15-.05-.27-.16-.37-.11-.09-.24-.14-.4-.14-.19,0-.38.07-.55.22l.14.17c.13-.1.27-.15.4-.15.11,0,.2.03.25.09l.08.22c0,.1-.03.18-.1.23l-.23.08h-.13v.21ZM45.75,5.78v1.91h.03l1.39-1.4v1.4h.25v-1.91h-.02l-1.4,1.42v-1.42h-.25ZM43.68,6.19c.15.15.22.33.22.55,0,.15-.03.28-.1.39-.07.12-.16.21-.28.28-.12.07-.25.1-.38.1s-.26-.03-.37-.1c-.12-.07-.21-.16-.28-.29-.07-.12-.1-.25-.1-.39s.03-.26.1-.39c.07-.12.16-.22.28-.28.12-.07.24-.1.38-.1.21,0,.39.07.54.22ZM43.88,5.78v.35c-.1-.13-.21-.23-.33-.3-.13-.07-.27-.1-.43-.1-.27,0-.5.1-.7.29s-.29.43-.29.71.1.52.29.72c.19.2.42.29.69.29.15,0,.29-.03.42-.09.13-.06.24-.16.35-.28v.33h.24v-1.91h-.24ZM40.98,6.79h.15c.1,0,.18.03.25.1.07.06.11.15.11.26s-.04.2-.11.26c-.07.07-.17.1-.29.1-.18,0-.34-.07-.45-.2l-.16.18c.16.17.37.25.63.25.21,0,.37-.06.48-.18s.16-.26.16-.41c0-.24-.11-.41-.34-.5.18-.07.26-.21.26-.4,0-.15-.05-.27-.16-.37-.11-.09-.24-.14-.4-.14-.19,0-.38.07-.55.22l.14.17c.13-.1.27-.15.4-.15.11,0,.2.03.25.09l.08.22c0,.1-.03.18-.1.23l-.23.08h-.13v.21ZM38.23,7.54l-.37.84h.26l1.14-2.61h-.26l-.64,1.47-.66-1.47h-.26l.79,1.77ZM36.78,7.48h-1.1l.56-1.32.54,1.32ZM35.22,7.48v.46h.24v-.25h1.58v.24h.24v-.45h-.23l-.73-1.7h-.13l-.74,1.7h-.23ZM34.47,6.19c.15.15.22.33.22.55,0,.14-.03.27-.1.39-.07.12-.16.21-.27.28-.11.07-.24.1-.38.1s-.26-.03-.38-.1c-.11-.07-.2-.16-.27-.28-.07-.12-.1-.25-.1-.39,0-.21.07-.4.22-.55s.32-.23.53-.23.38.08.53.23ZM33.21,6.05c-.18.19-.26.42-.26.69s.09.5.28.7c.19.2.43.3.72.3s.53-.1.72-.3.28-.43.28-.7-.09-.5-.26-.69c-.19-.21-.44-.32-.73-.32s-.54.11-.73.32ZM31.71,6.68l-.72,1.01h.29l.58-.8.58.8h.3l-.73-1.01.65-.9h-.3l-.5.7-.51-.7h-.3l.66.91ZM29.88,7.54l-.37.84h.26l1.14-2.61h-.26l-.64,1.47-.66-1.47h-.26l.79,1.77ZM27.3,6.19c.15.15.22.33.22.55,0,.14-.03.27-.1.39-.07.12-.16.21-.27.28s-.24.1-.38.1-.26-.03-.38-.1-.2-.16-.27-.28-.1-.25-.1-.39c0-.21.07-.4.22-.55s.32-.23.53-.23.38.08.53.23ZM26.04,6.05c-.18.19-.26.42-.26.69s.09.5.28.7.43.3.72.3.53-.1.72-.3.28-.43.28-.7-.09-.5-.26-.69c-.19-.21-.44-.32-.73-.32s-.54.11-.73.32ZM23.67,7.69h.25v-1.68h1.11v1.68h.25v-1.91h-1.6v1.91ZM21.8,6.62h-.16c-.15,0-.24,0-.29-.02l-.14-.09-.06-.19.05-.2.13-.1c.05-.02.16-.03.32-.03h.16v.63ZM21.8,7.69h.25v-1.91h-.58c-.17,0-.3.05-.4.14-.1.09-.15.22-.15.39,0,.13.04.25.13.34.09.09.21.15.35.16l-.58.88h.27l.55-.86h.18v.86ZM18.74,5.78v1.91h.03l1.39-1.4v1.4h.25v-1.91h-.02l-1.4,1.42v-1.42h-.25ZM18.13,7.99h.23v-.53h-.41v-1.68h-.25v1.68h-1.11v-1.68h-.25v1.91h1.79v.3ZM14.5,7.69h.25v-.82l.08-.07.88.88h.35l-1.05-1.04.97-.88h-.34l-.89.81v-.81h-.25v1.91ZM13.11,7.54l-.37.84h.26l1.14-2.61h-.26l-.64,1.47-.66-1.47h-.26l.79,1.77ZM11.4,6.07c.12.07.21.16.28.28.07.12.1.25.1.39s-.03.26-.1.39c-.07.12-.16.22-.28.29-.12.07-.24.1-.37.1s-.26-.03-.38-.1c-.12-.07-.21-.16-.28-.28s-.1-.25-.1-.39c0-.22.07-.41.22-.55.15-.15.32-.22.54-.22.14,0,.26.03.38.1ZM10.04,8.39h.25v-1.03c.1.13.22.22.35.28.13.06.27.09.42.09.27,0,.5-.1.69-.29s.29-.44.29-.72-.1-.51-.29-.71c-.19-.2-.43-.29-.7-.29-.16,0-.3.03-.42.1-.13.07-.24.17-.34.3v-.35h-.25v2.61ZM8.4,5.99h.51v1.7h.25v-1.7h.51v-.21h-1.26v.21ZM7.9,5.94c-.08-.06-.18-.11-.3-.15s-.24-.06-.37-.06c-.2,0-.38.04-.55.13-.16.09-.29.21-.38.37-.09.16-.14.33-.14.52,0,.28.1.51.3.7.2.19.45.29.75.29.2,0,.37-.04.53-.11.15-.08.28-.18.37-.32l-.2-.13c-.18.22-.41.34-.69.34-.15,0-.29-.03-.42-.1-.12-.07-.22-.16-.29-.29-.07-.12-.11-.25-.11-.39,0-.21.08-.4.23-.55.15-.15.35-.22.58-.22.29,0,.52.11.69.34l.2-.12c-.06-.1-.13-.18-.21-.24ZM5.41,7.69h.25v-1.91h-.25v.76h-1.11v-.76h-.25v1.91h.25v-.92h1.11v.92ZM3.43,5.1h-.06l-1.72,2.02v-2.02h-.26v2.59h.06l1.71-1.98v1.98h.27v-2.59Z"/>
  </g>
</svg>