<?xml version="1.0" encoding="utf-8"?>
<!-- Generator: Adobe Illustrator 16.0.0, SVG Export Plug-In . SVG Version: 6.00 Build 0)  -->
<!DOCTYPE svg PUBLIC "-//W3C//DTD SVG 1.1//EN" "http://www.w3.org/Graphics/SVG/1.1/DTD/svg11.dtd">
<svg version="1.1" id="图层_1" xmlns="http://www.w3.org/2000/svg" xmlns:xlink="http://www.w3.org/1999/xlink" x="0px" y="0px"
	 width="56.693px" height="11.339px" viewBox="0 0 56.693 11.339" enable-background="new 0 0 56.693 11.339" xml:space="preserve">
<rect x="17.729" y="0.174" fill="#646569" width="1.717" height="10.944"/>
<path fill="#646569" d="M4.327,3.582c-0.744,0-1.436,0.215-2.021,0.585V0.189h-1.76v6.938h0.002C0.542,7.209,0.54,7.29,0.54,7.374
	c0,2.094,1.693,3.791,3.787,3.791c2.092,0,3.787-1.697,3.787-3.791C8.114,5.279,6.419,3.582,4.327,3.582 M4.327,9.435
	c-1.139,0-2.061-0.923-2.061-2.062c0-1.14,0.922-2.063,2.061-2.063c1.137,0,2.059,0.923,2.059,2.063
	C6.386,8.512,5.464,9.435,4.327,9.435z"/>
<rect x="45.974" y="0.174" fill="#646569" width="1.717" height="10.944"/>
<path fill="#646569" d="M32.571,3.582c-0.742,0-1.436,0.215-2.021,0.585V0.189h-1.758v6.938h0.002
	c-0.006,0.082-0.01,0.163-0.01,0.246c0,2.094,1.695,3.791,3.787,3.791s3.787-1.697,3.787-3.791
	C36.358,5.279,34.663,3.582,32.571,3.582 M32.571,9.435c-1.137,0-2.059-0.923-2.059-2.062c0-1.14,0.922-2.063,2.059-2.063
	c1.139,0,2.061,0.923,2.061,2.063C34.632,8.512,33.71,9.435,32.571,9.435z"/>
<path fill="#646569" d="M52.36,11.155c0.744,0,1.438-0.215,2.023-0.585l-0.021,0.583h1.783V7.609l-0.002,0
	c0.006-0.082,0.01-0.164,0.01-0.246c0-2.094-1.697-3.791-3.793-3.791c-2.094,0-3.791,1.697-3.791,3.791S50.267,11.155,52.36,11.155
	 M52.36,5.301c1.139,0,2.063,0.923,2.063,2.063c0,1.139-0.924,2.063-2.063,2.063S50.3,8.502,50.3,7.363
	C50.3,6.224,51.222,5.301,52.36,5.301z"/>
<path fill="#646569" d="M41.022,11.155c0.744,0,1.438-0.215,2.023-0.585l-0.023,0.583h1.783V7.609l-0.002,0
	c0.006-0.082,0.01-0.164,0.01-0.246c0-2.094-1.697-3.791-3.791-3.791c-2.096,0-3.793,1.697-3.793,3.791S38.927,11.155,41.022,11.155
	 M41.022,5.301c1.137,0,2.061,0.923,2.061,2.063c0,1.139-0.924,2.063-2.061,2.063c-1.139,0-2.063-0.924-2.063-2.063
	C38.96,6.224,39.884,5.301,41.022,5.301z"/>
<path fill="#646569" d="M24.116,11.155c0.742,0,1.438-0.215,2.023-0.585l-0.021,0.583h1.783V7.609l-0.004,0
	c0.006-0.082,0.01-0.164,0.01-0.246c0-2.094-1.697-3.791-3.791-3.791s-3.793,1.697-3.793,3.791S22.022,11.155,24.116,11.155
	 M24.116,5.301c1.139,0,2.063,0.923,2.063,2.063c0,1.139-0.924,2.063-2.063,2.063s-2.063-0.924-2.063-2.063
	C22.054,6.224,22.978,5.301,24.116,5.301z"/>
<path fill="#646569" d="M12.776,11.155c0.744,0,1.438-0.215,2.023-0.585l-0.021,0.583h1.783V7.609l-0.002,0
	c0.004-0.082,0.008-0.164,0.008-0.246c0-2.094-1.697-3.791-3.791-3.791S8.983,5.269,8.983,7.363S10.683,11.155,12.776,11.155
	 M12.776,5.301c1.139,0,2.061,0.923,2.061,2.063c0,1.139-0.922,2.063-2.061,2.063s-2.063-0.924-2.063-2.063
	C10.714,6.224,11.638,5.301,12.776,5.301z"/>
</svg>
