<?xml version="1.0" encoding="UTF-8"?>
<svg id="_图层_2" data-name="图层 2" xmlns="http://www.w3.org/2000/svg" viewBox="0 0 62.1 7.45">
  <defs>
    <style>
      .cls-1 {
        fill: #212322;
      }
    </style>
  </defs>
  <g id="_图层_1-2" data-name="图层 1">
    <path class="cls-1" d="M44.4,3.55c0,.84-.46,1.4-1.12,1.4-.29,0-.53-.11-.7-.33v1.27h-.71v-3.64h.63l.02.34c.18-.27.44-.4.81-.4.59,0,1.07.5,1.07,1.36M43.71,3.55c0-.48-.24-.77-.59-.77s-.59.3-.59.77.24.77.59.77.59-.29.59-.77"/>
    <path class="cls-1" d="M46.37,2.2v.65s-.1,0-.15,0c-.43,0-.65.25-.65.75v1.27h-.71v-2.61h.7v.35c.1-.28.31-.44.58-.44.08,0,.15.01.23.04"/>
    <path class="cls-1" d="M49.26,3.77h-1.89c.03.39.26.63.61.63.25,0,.42-.11.5-.34l.71.05c-.18.57-.61.84-1.2.84-.86,0-1.36-.61-1.36-1.4s.48-1.36,1.28-1.36,1.34.55,1.34,1.46v.12ZM47.36,3.29h1.16c-.04-.36-.25-.58-.58-.58s-.55.22-.58.58"/>
    <path class="cls-1" d="M53.48,3.12v1.74h-.71v-1.6c0-.23-.1-.43-.35-.43-.28,0-.46.25-.46.64v1.4h-.71v-1.6c0-.23-.1-.43-.35-.43-.28,0-.47.25-.47.64v1.4h-.71v-2.61h.7v.33c.17-.27.4-.4.72-.4.37,0,.63.18.75.47.17-.32.41-.47.77-.47.54,0,.83.38.83.93"/>
    <path class="cls-1" d="M54.09,1.26h.71v.65h-.71v-.65ZM54.09,2.26h.71v2.61h-.71v-2.61Z"/>
    <path class="cls-1" d="M57.72,2.26v2.61h-.7v-.35c-.18.28-.43.42-.76.42-.54,0-.85-.36-.85-.92v-1.75h.71v1.59c0,.27.13.44.38.44.3,0,.51-.25.51-.64v-1.39h.71Z"/>
    <path class="cls-1" d="M62.09,3.12v1.74h-.71v-1.6c0-.23-.1-.43-.35-.43-.28,0-.46.25-.46.64v1.4h-.71v-1.6c0-.23-.1-.43-.35-.43-.28,0-.46.25-.46.64v1.4h-.71v-2.61h.7v.33c.17-.27.4-.4.72-.4.37,0,.63.18.75.47.17-.32.41-.47.77-.47.54,0,.83.38.83.93"/>
    <path class="cls-1" d="M8.51,2.19c-1.45,0-2.63,1.18-2.63,2.63s1.18,2.63,2.63,2.63c.57,0,1.1-.19,1.53-.5v.4h1.1v-2.54c0-1.45-1.18-2.63-2.63-2.63M8.51,6.35c-.85,0-1.53-.69-1.53-1.53s.69-1.53,1.53-1.53,1.53.69,1.53,1.53-.69,1.53-1.53,1.53"/>
    <path class="cls-1" d="M16.59,2.19c-1.45,0-2.63,1.18-2.63,2.63s1.18,2.63,2.63,2.63c.57,0,1.1-.19,1.53-.5v.4h1.1v-2.54c0-1.45-1.18-2.63-2.63-2.63M16.59,6.35c-.85,0-1.53-.69-1.53-1.53s.69-1.53,1.53-1.53,1.53.69,1.53,1.53-.69,1.53-1.53,1.53"/>
    <path class="cls-1" d="M2.63,2.19c-.57,0-1.1.19-1.53.5V0H0v4.82c0,1.45,1.18,2.63,2.63,2.63s2.63-1.18,2.63-2.63-1.18-2.63-2.63-2.63M2.63,6.35c-.85,0-1.53-.69-1.53-1.53s.69-1.53,1.53-1.53,1.53.69,1.53,1.53-.69,1.53-1.53,1.53"/>
    <rect class="cls-1" x="12.09" y="0" width="1.1" height="7.36"/>
    <path class="cls-1" d="M28.52,2.19c-1.45,0-2.63,1.18-2.63,2.63s1.18,2.63,2.63,2.63c.57,0,1.1-.19,1.53-.5v.4h1.1v-2.54c0-1.45-1.18-2.63-2.63-2.63M28.52,6.35c-.85,0-1.53-.69-1.53-1.53s.69-1.53,1.53-1.53,1.53.69,1.53,1.53-.69,1.53-1.53,1.53"/>
    <path class="cls-1" d="M36.6,2.19c-1.45,0-2.63,1.18-2.63,2.63s1.18,2.63,2.63,2.63c.57,0,1.1-.19,1.53-.5v.4h1.1v-2.54c0-1.45-1.18-2.63-2.63-2.63M36.6,6.35c-.85,0-1.53-.69-1.53-1.53s.69-1.53,1.53-1.53,1.53.69,1.53,1.53-.69,1.53-1.53,1.53"/>
    <path class="cls-1" d="M22.65,2.19c-.57,0-1.1.19-1.53.5V0h-1.1v4.82c0,1.45,1.18,2.63,2.63,2.63s2.63-1.18,2.63-2.63-1.18-2.63-2.63-2.63M22.65,6.35c-.85,0-1.53-.69-1.53-1.53s.69-1.53,1.53-1.53,1.53.69,1.53,1.53-.69,1.53-1.53,1.53"/>
    <rect class="cls-1" x="32.1" y="0" width="1.1" height="7.36"/>
    <rect class="cls-1" x="41.86" y="6.76" width="20.24" height=".59"/>
  </g>
</svg>