<?xml version="1.0" encoding="UTF-8"?>
<svg id="_图层_2" data-name="图层 2" xmlns="http://www.w3.org/2000/svg" viewBox="0 0 63.28 7.66">
  <defs>
    <style>
      .cls-1 {
        fill: #231815;
        fill-rule: evenodd;
      }
    </style>
  </defs>
  <g id="_图层_1-2" data-name="图层 1">
    <path class="cls-1" d="M1.68,2.87c0-.51.38-.91.85-.91h1.57V.06h-2.06C.92.06,0,1.05,0,2.26v5.35h1.68v-2.83h2.42v-1.62H1.68v-.29ZM14.6,1.84c1.02,0,1.86.89,1.86,2s-.83,2-1.86,2-1.86-.89-1.86-2,.83-2,1.86-2M39.35,3.86c.32-.26.62-.9.62-1.55,0-1.41-1.2-2.25-2.54-2.25s-2.54.75-2.54,2.54v5.06h1.74v-3.98c-.2-.23-.32-.53-.32-.87,0-.7.53-1.27,1.18-1.27s1.18.57,1.18,1.27c0,.63-.43,1.16-1,1.25v.76c.36,0,.52.14.52.46v2.37h1.89v-2.63c0-.54-.21-1-.73-1.16M31.81.09c-1.43,0-2.6,1.18-2.6,2.64v4.92h1.74V3.53c-.17-.21-.27-.48-.27-.79,0-.67.51-1.21,1.13-1.21s1.13.54,1.13,1.21c0,.6-.39,1.09-.92,1.2v1.44c1.34-.11,2.39-1.25,2.39-2.64,0-1.46-1.16-2.65-2.6-2.65M42.76,7.64h-1.68V.07h1.68v7.56ZM53.3,5.97c-1.06,0-1.92-.93-1.92-2.07s.86-2.07,1.92-2.07h.96V.15h-1.08c-1.93,0-3.49,1.68-3.49,3.75s1.56,3.75,3.49,3.75h1.08v-1.68h-.96ZM62.95.15h-4.76c-1.92,0-3.57,1.62-3.61,3.68-.04,2.1,1.54,3.82,3.49,3.82l.81-1.26c.11-.18,0-.42-.21-.42h-.47c-.84,0-1.56-.58-1.82-1.39h4.02l.68-.93c.09-.19-.03-.41-.23-.41h-4.47c.27-.82,1.04-1.39,1.9-1.39h4.11l.85-1.16c.12-.23-.04-.52-.29-.52M9.53,3.81c.32-.26.62-.9.62-1.55C10.15.85,8.95,0,7.6,0s-2.54.75-2.54,2.54v5.06h1.74v-3.98c-.2-.23-.32-.53-.32-.87,0-.7.53-1.27,1.18-1.27s1.18.57,1.18,1.27c0,.63-.43,1.15-1,1.25v.77c.36,0,.52.14.52.46v2.38h1.89v-2.63c0-.54-.21-1.01-.73-1.17M26.3,3.05h-2.62s-.98,1.29-.98,1.29c-.06.11.02.25.14.25h1.97c-.29.87-1.08,1.51-2.02,1.51-1.18,0-2.14-.99-2.14-2.21s.96-2.22,2.14-2.22c.4,0,.86.13,1.3.43.13.08.29.06.4-.06l.59-.63c.13-.14.12-.37-.02-.5C24.42.34,23.59,0,22.69,0c-2.04,0-3.69,1.71-3.69,3.83s1.66,3.83,3.69,3.83,3.69-1.71,3.69-3.83c0-.27-.03-.54-.08-.79M43.4,1.37v6.28h1.63V2.59l1.93,4.38c.52,1.03,2.3.99,2.3-.69V.15h-1.55v5.07l-2.04-4.55c-.59-1.11-2.27-.84-2.27.69M14.59,0c-1.97,0-3.56,1.71-3.56,3.83s1.6,3.83,3.56,3.83,3.56-1.71,3.56-3.83S16.56,0,14.59,0"/>
  </g>
</svg>